<svg enable-background="new 0 0 64 64" height="512" viewBox="0 0 64 64" width="512" xmlns="http://www.w3.org/2000/svg"><g id="Arrow-16"><path d="m57.5351563 19.9990234-2.8681641-2.8681641c-.1875-.1875-.4418945-.2929688-.7070313-.2929688-.0024414 0-.0048828 0-.0068359 0-.2680664.0019531-.5234375.1108398-.7099609.3027344l-21.2431641 21.8491212-21.2431641-21.8486328c-.1865234-.1918945-.4418945-.3007813-.7099609-.3027344-.0019531 0-.0043945 0-.0068359 0-.2651367 0-.5195313.1054688-.7070313.2929688l-2.8681641 2.8681641c-.387207.387207-.3911133 1.0131836-.0087891 1.4052734l24.828125 25.4555664c.1879884.1928711.4462892.3017578.7158204.3017578s.527832-.1088867.7158203-.3017578l24.828125-25.4560547c.3823242-.3920899.378418-1.0180664-.008789-1.4052735z"/></g></svg>